# xmcd
#
# Track frame offsets:
#	150
#	6949
#	15506
#	25115
#	33811
#	44207
#	56192
#	66774
#	77125
#	88139
#	98603
#	109276
#	117809
#	128506
#
# Disc length: 1868 seconds
#
# Revision: 0
# Processed by: cddbd v1.5.2PL0 Copyright (c) Steve Scherf et al.
# Submitted via: audiograbber 1.83.01
#
DISCID=af074a0e
DTITLE=Waylon Jennings - The Country Collection
DYEAR=2005
DGENRE=Country
TTITLE0=It's So Easy  
TTITLE1=Abilene  
TTITLE2=When Sin Stops
TTITLE3=Love Gonna Live Here  
TTITLE4=Lorena  
TTITLE5=Don't Think Twice It's Alright 
TTITLE6=Burnig Memories  
TTITLE7=White Lightning  
TTITLE8=Big Mamou  
TTITLE9=Money  
TTITLE10=Sally Was A Good Old Girl 
TTITLE11=Joe Blon  
TTITLE12=Dream Baby  
TTITLE13=Crying  
EXTD=
EXTT0=
EXTT1=
EXTT2=
EXTT3=
EXTT4=
EXTT5=
EXTT6=
EXTT7=
EXTT8=
EXTT9=
EXTT10=
EXTT11=
EXTT12=
EXTT13=
PLAYORDER=
